%TF.GenerationSoftware,KiCad,Pcbnew,10.0.1*%
%TF.CreationDate,2026-05-09T18:12:33+02:00*%
%TF.ProjectId,hackpad,6861636b-7061-4642-9e6b-696361645f70,rev?*%
%TF.SameCoordinates,Original*%
%TF.FileFunction,Legend,Top*%
%TF.FilePolarity,Positive*%
%FSLAX46Y46*%
G04 Gerber Fmt 4.6, Leading zero omitted, Abs format (unit mm)*
G04 Created by KiCad (PCBNEW 10.0.1) date 2026-05-09 18:12:33*
%MOMM*%
%LPD*%
G01*
G04 APERTURE LIST*
%ADD10C,0.150000*%
%ADD11C,0.120000*%
G04 APERTURE END LIST*
D10*
X133361667Y-99818200D02*
X133504524Y-99865819D01*
X133504524Y-99865819D02*
X133742619Y-99865819D01*
X133742619Y-99865819D02*
X133837857Y-99818200D01*
X133837857Y-99818200D02*
X133885476Y-99770580D01*
X133885476Y-99770580D02*
X133933095Y-99675342D01*
X133933095Y-99675342D02*
X133933095Y-99580104D01*
X133933095Y-99580104D02*
X133885476Y-99484866D01*
X133885476Y-99484866D02*
X133837857Y-99437247D01*
X133837857Y-99437247D02*
X133742619Y-99389628D01*
X133742619Y-99389628D02*
X133552143Y-99342009D01*
X133552143Y-99342009D02*
X133456905Y-99294390D01*
X133456905Y-99294390D02*
X133409286Y-99246771D01*
X133409286Y-99246771D02*
X133361667Y-99151533D01*
X133361667Y-99151533D02*
X133361667Y-99056295D01*
X133361667Y-99056295D02*
X133409286Y-98961057D01*
X133409286Y-98961057D02*
X133456905Y-98913438D01*
X133456905Y-98913438D02*
X133552143Y-98865819D01*
X133552143Y-98865819D02*
X133790238Y-98865819D01*
X133790238Y-98865819D02*
X133933095Y-98913438D01*
X134266429Y-98865819D02*
X134504524Y-99865819D01*
X134504524Y-99865819D02*
X134695000Y-99151533D01*
X134695000Y-99151533D02*
X134885476Y-99865819D01*
X134885476Y-99865819D02*
X135123572Y-98865819D01*
X135456905Y-98961057D02*
X135504524Y-98913438D01*
X135504524Y-98913438D02*
X135599762Y-98865819D01*
X135599762Y-98865819D02*
X135837857Y-98865819D01*
X135837857Y-98865819D02*
X135933095Y-98913438D01*
X135933095Y-98913438D02*
X135980714Y-98961057D01*
X135980714Y-98961057D02*
X136028333Y-99056295D01*
X136028333Y-99056295D02*
X136028333Y-99151533D01*
X136028333Y-99151533D02*
X135980714Y-99294390D01*
X135980714Y-99294390D02*
X135409286Y-99865819D01*
X135409286Y-99865819D02*
X136028333Y-99865819D01*
X133361667Y-114908200D02*
X133504524Y-114955819D01*
X133504524Y-114955819D02*
X133742619Y-114955819D01*
X133742619Y-114955819D02*
X133837857Y-114908200D01*
X133837857Y-114908200D02*
X133885476Y-114860580D01*
X133885476Y-114860580D02*
X133933095Y-114765342D01*
X133933095Y-114765342D02*
X133933095Y-114670104D01*
X133933095Y-114670104D02*
X133885476Y-114574866D01*
X133885476Y-114574866D02*
X133837857Y-114527247D01*
X133837857Y-114527247D02*
X133742619Y-114479628D01*
X133742619Y-114479628D02*
X133552143Y-114432009D01*
X133552143Y-114432009D02*
X133456905Y-114384390D01*
X133456905Y-114384390D02*
X133409286Y-114336771D01*
X133409286Y-114336771D02*
X133361667Y-114241533D01*
X133361667Y-114241533D02*
X133361667Y-114146295D01*
X133361667Y-114146295D02*
X133409286Y-114051057D01*
X133409286Y-114051057D02*
X133456905Y-114003438D01*
X133456905Y-114003438D02*
X133552143Y-113955819D01*
X133552143Y-113955819D02*
X133790238Y-113955819D01*
X133790238Y-113955819D02*
X133933095Y-114003438D01*
X134266429Y-113955819D02*
X134504524Y-114955819D01*
X134504524Y-114955819D02*
X134695000Y-114241533D01*
X134695000Y-114241533D02*
X134885476Y-114955819D01*
X134885476Y-114955819D02*
X135123572Y-113955819D01*
X135409286Y-113955819D02*
X136028333Y-113955819D01*
X136028333Y-113955819D02*
X135695000Y-114336771D01*
X135695000Y-114336771D02*
X135837857Y-114336771D01*
X135837857Y-114336771D02*
X135933095Y-114384390D01*
X135933095Y-114384390D02*
X135980714Y-114432009D01*
X135980714Y-114432009D02*
X136028333Y-114527247D01*
X136028333Y-114527247D02*
X136028333Y-114765342D01*
X136028333Y-114765342D02*
X135980714Y-114860580D01*
X135980714Y-114860580D02*
X135933095Y-114908200D01*
X135933095Y-114908200D02*
X135837857Y-114955819D01*
X135837857Y-114955819D02*
X135552143Y-114955819D01*
X135552143Y-114955819D02*
X135456905Y-114908200D01*
X135456905Y-114908200D02*
X135409286Y-114860580D01*
X133361667Y-84728200D02*
X133504524Y-84775819D01*
X133504524Y-84775819D02*
X133742619Y-84775819D01*
X133742619Y-84775819D02*
X133837857Y-84728200D01*
X133837857Y-84728200D02*
X133885476Y-84680580D01*
X133885476Y-84680580D02*
X133933095Y-84585342D01*
X133933095Y-84585342D02*
X133933095Y-84490104D01*
X133933095Y-84490104D02*
X133885476Y-84394866D01*
X133885476Y-84394866D02*
X133837857Y-84347247D01*
X133837857Y-84347247D02*
X133742619Y-84299628D01*
X133742619Y-84299628D02*
X133552143Y-84252009D01*
X133552143Y-84252009D02*
X133456905Y-84204390D01*
X133456905Y-84204390D02*
X133409286Y-84156771D01*
X133409286Y-84156771D02*
X133361667Y-84061533D01*
X133361667Y-84061533D02*
X133361667Y-83966295D01*
X133361667Y-83966295D02*
X133409286Y-83871057D01*
X133409286Y-83871057D02*
X133456905Y-83823438D01*
X133456905Y-83823438D02*
X133552143Y-83775819D01*
X133552143Y-83775819D02*
X133790238Y-83775819D01*
X133790238Y-83775819D02*
X133933095Y-83823438D01*
X134266429Y-83775819D02*
X134504524Y-84775819D01*
X134504524Y-84775819D02*
X134695000Y-84061533D01*
X134695000Y-84061533D02*
X134885476Y-84775819D01*
X134885476Y-84775819D02*
X135123572Y-83775819D01*
X136028333Y-84775819D02*
X135456905Y-84775819D01*
X135742619Y-84775819D02*
X135742619Y-83775819D01*
X135742619Y-83775819D02*
X135647381Y-83918676D01*
X135647381Y-83918676D02*
X135552143Y-84013914D01*
X135552143Y-84013914D02*
X135456905Y-84061533D01*
%TO.C,SW2*%
D11*
X127710000Y-100300000D02*
X141680000Y-100300000D01*
X127710000Y-114270000D02*
X127710000Y-100300000D01*
X141680000Y-100300000D02*
X141680000Y-114270000D01*
X141680000Y-114270000D02*
X127710000Y-114270000D01*
%TO.C,SW3*%
X127710000Y-115390000D02*
X141680000Y-115390000D01*
X127710000Y-129360000D02*
X127710000Y-115390000D01*
X141680000Y-115390000D02*
X141680000Y-129360000D01*
X141680000Y-129360000D02*
X127710000Y-129360000D01*
%TO.C,SW1*%
X127710000Y-85210000D02*
X141680000Y-85210000D01*
X127710000Y-99180000D02*
X127710000Y-85210000D01*
X141680000Y-85210000D02*
X141680000Y-99180000D01*
X141680000Y-99180000D02*
X127710000Y-99180000D01*
%TD*%
M02*
