%TF.GenerationSoftware,KiCad,Pcbnew,10.0.1*%
%TF.CreationDate,2026-05-09T18:12:33+02:00*%
%TF.ProjectId,hackpad,6861636b-7061-4642-9e6b-696361645f70,rev?*%
%TF.SameCoordinates,Original*%
%TF.FileFunction,Copper,L2,Bot*%
%TF.FilePolarity,Positive*%
%FSLAX46Y46*%
G04 Gerber Fmt 4.6, Leading zero omitted, Abs format (unit mm)*
G04 Created by KiCad (PCBNEW 10.0.1) date 2026-05-09 18:12:33*
%MOMM*%
%LPD*%
G01*
G04 APERTURE LIST*
%TA.AperFunction,ComponentPad*%
%ADD10C,2.200000*%
%TD*%
%TA.AperFunction,ComponentPad*%
%ADD11R,3.500000X1.700000*%
%TD*%
%TA.AperFunction,ComponentPad*%
%ADD12O,3.600000X1.700000*%
%TD*%
%TA.AperFunction,ComponentPad*%
%ADD13O,3.700000X1.700000*%
%TD*%
%TA.AperFunction,Conductor*%
%ADD14C,0.200000*%
%TD*%
G04 APERTURE END LIST*
D10*
%TO.P,SW2,1,1_1*%
%TO.N,Net-(U1-GPIO20{slash}D9{slash}MISO)*%
X137235000Y-102205000D03*
%TO.P,SW2,2,2_2*%
%TO.N,GND*%
X130885000Y-104745000D03*
%TD*%
%TO.P,SW3,1,1_1*%
%TO.N,Net-(U1-GPIO19{slash}D8{slash}SCK)*%
X137235000Y-117295000D03*
%TO.P,SW3,2,2_2*%
%TO.N,Net-(SW1-Pad2)*%
X130885000Y-119835000D03*
%TD*%
%TO.P,SW1,1,1_1*%
%TO.N,Net-(U1-GPIO18{slash}D10{slash}MOSI)*%
X137235000Y-87115000D03*
%TO.P,SW1,2,2_2*%
%TO.N,Net-(SW1-Pad2)*%
X130885000Y-89655000D03*
%TD*%
D11*
%TO.P,U1,1,GPIO0/A0/D0_1*%
%TO.N,unconnected-(U1-GPIO0{slash}A0{slash}D0-Pad1)*%
X143375000Y-83830000D03*
D12*
%TO.P,U1,2,GPIO1/A1/D1_2*%
%TO.N,unconnected-(U1-GPIO1{slash}A1{slash}D1-Pad2)*%
X143375000Y-86370000D03*
%TO.P,U1,3,GPIO2/A2/D2_3*%
%TO.N,unconnected-(U1-GPIO2{slash}A2{slash}D2-Pad3)*%
X143375000Y-88910000D03*
%TO.P,U1,4,GPIO21/D3_4*%
%TO.N,unconnected-(U1-GPIO21{slash}D3-Pad4)*%
X143375000Y-91450000D03*
%TO.P,U1,5,GPIO22/D4/SDA_5*%
%TO.N,unconnected-(U1-GPIO22{slash}D4{slash}SDA-Pad5)*%
X143375000Y-93990000D03*
%TO.P,U1,6,GPIO23/D5/SCL_6*%
%TO.N,unconnected-(U1-GPIO23{slash}D5{slash}SCL-Pad6)*%
X143375000Y-96530000D03*
%TO.P,U1,7,GPIO16/D6/TX_7*%
%TO.N,unconnected-(U1-GPIO16{slash}D6{slash}TX-Pad7)*%
X143375000Y-99070000D03*
%TO.P,U1,8,GPIO17/D7/RX_8*%
%TO.N,unconnected-(U1-GPIO17{slash}D7{slash}RX-Pad8)*%
X126125000Y-99070000D03*
%TO.P,U1,9,GPIO19/D8/SCK_9*%
%TO.N,Net-(U1-GPIO19{slash}D8{slash}SCK)*%
X126125000Y-96530000D03*
%TO.P,U1,10,GPIO20/D9/MISO_10*%
%TO.N,Net-(U1-GPIO20{slash}D9{slash}MISO)*%
X126125000Y-93990000D03*
D13*
%TO.P,U1,11,GPIO18/D10/MOSI_11*%
%TO.N,Net-(U1-GPIO18{slash}D10{slash}MOSI)*%
X126125000Y-91450000D03*
%TO.P,U1,12,3V3_12*%
%TO.N,unconnected-(U1-3V3-Pad12)*%
X126125000Y-88910000D03*
%TO.P,U1,13,GND_13*%
%TO.N,GND*%
X126125000Y-86370000D03*
%TO.P,U1,14,VBUS_14*%
%TO.N,unconnected-(U1-VBUS-Pad14)*%
X126125000Y-83830000D03*
%TD*%
%TO.N,Net-(U1-GPIO18{slash}D10{slash}MOSI)*%
D14*
X127580000Y-90995000D02*
X130195000Y-90995000D01*
X132511598Y-91055000D02*
X136451598Y-87115000D01*
X130195000Y-90995000D02*
X130255000Y-91055000D01*
X130255000Y-91055000D02*
X132511598Y-91055000D01*
X127125000Y-91450000D02*
X127580000Y-90995000D01*
X136451598Y-87115000D02*
X137235000Y-87115000D01*
%TO.N,Net-(U1-GPIO20{slash}D9{slash}MISO)*%
X129020000Y-93990000D02*
X137235000Y-102205000D01*
X127125000Y-93990000D02*
X129020000Y-93990000D01*
%TO.N,Net-(U1-GPIO19{slash}D8{slash}SCK)*%
X127125000Y-96530000D02*
X132345000Y-101750000D01*
X132345000Y-112405000D02*
X137235000Y-117295000D01*
X132345000Y-101750000D02*
X132345000Y-112405000D01*
%TD*%
M02*
